<?xml version="1.0" encoding="utf-8"?>
<!-- Generator: Adobe Illustrator 22.0.1, SVG Export Plug-In . SVG Version: 6.00 Build 0)  -->
<svg version="1.1" id="Capa_1" xmlns="http://www.w3.org/2000/svg" xmlns:xlink="http://www.w3.org/1999/xlink" x="0px" y="0px"
	 viewBox="0 0 138.9 36.2" style="enable-background:new 0 0 138.9 36.2;" xml:space="preserve">
<style type="text/css">
	.st0{fill:#340000;}
	.st1{fill:#540000;}
	.st2{fill:#B13A00;}
	.st3{fill:#1E0000;}
	.st4{fill:#1A0000;}
	.st5{fill:#320000;}
	.st6{fill:#922000;}
	.st7{fill:#230000;}
	.st8{fill:#B13C00;}
	.st9{fill:#5A0000;}
	.st10{fill:#830E00;}
	.st11{fill:#650000;}
	.st12{fill:#680000;}
	.st13{fill:#730000;}
	.st14{fill:#600000;}
	.st15{fill:#BA4200;}
	.st16{fill:#AF3800;}
	.st17{fill:#7B0500;}
	.st18{fill:#2F0000;}
	.st19{fill:#100000;}
	.st20{fill:#370000;}
	.st21{fill:#270000;}
	.st22{fill:#0D0000;}
	.st23{fill:#A63200;}
	.st24{fill:#851000;}
	.st25{fill:#690000;}
	.st26{fill:#952200;}
	.st27{fill:#9C2700;}
	.st28{fill:#550000;}
	.st29{fill:#871000;}
	.st30{fill:#570000;}
	.st31{fill:#350000;}
	.st32{fill:#050000;}
	.st33{fill:#8E1700;}
	.st34{fill:#2A0000;}
	.st35{fill:#972400;}
	.st36{fill:#840C00;}
	.st37{fill:#B84300;}
	.st38{fill:#850B00;}
	.st39{fill:#8F1700;}
	.st40{fill:#B53F02;}
	.st41{fill:#510000;}
	.st42{fill:#5B0000;}
	.st43{fill:#630000;}
	.st44{fill:#AA3400;}
	.st45{fill:#770000;}
	.st46{fill:#AB3500;}
	.st47{fill:#8D1500;}
	.st48{fill:#992100;}
	.st49{fill:#921B00;}
	.st50{fill:#9B2200;}
	.st51{fill:#992000;}
	.st52{fill:#951C00;}
	.st53{fill:#B64002;}
	.st54{fill:#AE3700;}
	.st55{fill:#9D2800;}
	.st56{fill:#4B0000;}
	.st57{fill:#810700;}
	.st58{fill:#4A0000;}
	.st59{fill:#430000;}
	.st60{fill:#AF3600;}
	.st61{fill:#A02700;}
	.st62{fill:#810B00;}
	.st63{fill:#A72F00;}
	.st64{fill:#9A1F00;}
	.st65{fill:#8E1400;}
	.st66{fill:#911900;}
	.st67{fill:#4F0000;}
	.st68{fill:#7F0800;}
	.st69{fill:#8A1100;}
	.st70{fill:#780200;}
	.st71{fill:#080000;}
	.st72{fill:#A22A00;}
	.st73{fill:#200000;}
	.st74{fill:#A52A00;}
</style>
<title>logoMnemonicL_1</title>
<g id="Capa_2_1_">
	<g id="Capa_1-2">
		<path d="M51.8,11c0.9-3.2,2.3-10.1,4.8-10.1c3.1,0,0.7,14.8,0.2,19c-0.4,3.2-1.6,7.8-0.4,10.9c0.6-0.5,1-1.6,1.8-1.7
			c0,1.5,0.2,2.8-1.4,3.5c-3.2,1.3-4.1-2.3-4.2-4.6c0.1-3,0.3-6,0.8-9c0.1-1.3,1-10,1.1-10.2c-0.9,1.8-2.1,6.6-3.2,6.7
			c-1.7,0.2-2.7-3-3.2-4.6c-1.4,2.2-2,15-3.2,15.4C40.2,28,44,2.8,48.3,2.4C50,2.3,50.7,7.1,51.8,11z"/>
		<path d="M94.2,10.9c-0.8-0.7-2-0.9-3-0.6c-0.9,0.4-1.9,2.9-2.7,3c-0.2-2.2-1.7-3.8-3.9-2.2c-0.6,0.4-2.4,4.2-2.8,4
			c0.5-1.7,1.8-4.9-1.4-5c-2.4-0.1-2.3,4.8-2.7,6.8c-0.5,3-1.8,5.9-3.6,8.4c-0.8,1.1-1.1,1.9-2.1,0.6c-0.5-0.7-0.6-3.4-0.5-4
			c0.4-1.5,0.2-0.7,1.5-1.5c1.1-0.5,2-1.5,2.4-2.7c0.6-2.2,0.2-6.5-2.8-6.3c-4.7,0.3-4.3,13.2-6,12.9c-0.3-2.1,0.3-4.2,0.8-6.2
			c0.4-1.6,2-5.1,1.6-6.8c-0.2-1.2-1.4-2-2.6-1.8c0,0,0,0,0,0C64.8,10,64,13,62.9,14.2c-0.4-1-1.4-1.5-2.4-1.2
			c-1.7,0.4-1.6,1.9-1.9,3.5c-0.4,2.3-1.8,8-0.7,10c0.6,1.1,2.4,1.5,3.1,0.5c0.6-0.8,0.3-3.9,0.4-4.8c0.4-3.1,1.5-6.1,3.3-8.7
			c0.5,1.5-1.3,5.3-1.5,7c-0.2,1.8-0.7,4.4,0.6,5.9c2.3,2.6,3.5-0.2,4.4-2.1c0.2,0,1.5,2.5,2,2.9c0.8,0.9,2,1.2,3.1,0.9
			c2.2-0.7,2.5-3.6,3.8-5.2c0,1.3-0.1,3.3,1.8,3.4c1.7,0.1,1.4-0.9,1.5-2.2c0.4-3.5,0.8-7.8,3.8-10.2c0,1.8-3.1,15.6,1.5,13.7
			c1.7-0.7,1.3-5.3,1.5-6.9c0.4-3.2,0.5-6.7,3.5-8.8c-0.6,5.7-3.1,12.5-2.5,18.3c0.2,1.8,1.4,3.8,3.4,3.6c1-0.1,3.7-2.6,2.5-3.5
			c-0.8,0.5-1.6,1.1-2.3,1.8c0-4.2,1.1-8.4,1.7-12.5C93.9,18,95.7,12.2,94.2,10.9z M71.7,19c0-1,0.8-6.8,1.8-6.5s0.4,4.1,0.1,4.8
			C73.6,17.3,71.7,20,71.7,19z"/>
		<path d="M120.7,7.7c0-1.8,0.1-3,2.2-3.1c1.6-0.1,2.2,0.4,2.5,1.8c0.3,1.7-1.6,4.3-2.5,4.4C122.3,10.9,120.8,9.1,120.7,7.7z"/>
		<path d="M135.3,12.9c-1.3-1.5-2.2-1.2-3.9-0.7c-1.8,0.5-3.4,1.6-4.4,3.2c-1.5,2-2.6,4.3-3.3,6.7c-0.5,2,0.3,4.1-1.4,5.3
			c-0.2-2.6-0.1-5.2,0.4-7.8c0.4-2.2,2.5-6.3-0.9-7.1c-2.8-0.7-2.6,4.1-3,6.3c-0.6,3.5-0.8,6.1-3,9c-1-0.4,0.9-10.7,1-12
			c0.1-1.5,0.1-2.6-1.2-3.4c-2.3-1.3-3.1,0.8-4.2,2.2c-0.2-1.5-2.5-3.4-3.9-2.1c-0.8,0.7-0.4,2.7-1,3.6c-0.7,0.9-1.5,1.6-2.6,2
			c-0.6-2.2,1.2-4.2-0.2-6.2c-1-1.5-3.4-2.5-4.9-1.1s-0.8,4.3-1.7,6c-1.1,2.2-2.8,4.4-2.9,7c-0.1,3.2,2.9,6.4,5.9,3.9
			c1.5-1.2,2-3.4,2.5-5.1c0.2-0.6,0.3-2,0.8-2.6s1.9-0.5,2.5-1c1.7,2.2-3,10.9,1.3,11.3c3.2,0.3,2-6.3,2.3-8.7
			c0.4-2.8,1.7-5.3,3.6-7.4c0.7,1.2-0.5,4.9-0.7,6.3c-0.3,2.5-0.9,5.8-0.5,8.4c0.3,1.5,1.4,3.7,3.4,2.4c1.1-0.7,2.5-4.8,3.1-5.9
			c0.2,1.9,0.4,4.2,2.7,4.5c2.1,0.3,1.6-1.1,2.3-2.3c1.7,1.1,2.8,3.4,5.3,1.8c0.5-0.3,3-4.6,2.4-4.8c-1.2-0.5-4.2,6.4-4.5,1.7
			c-0.2-3.2,2.4-7.4,4.4-9.8C133.2,22.3,136.7,14.4,135.3,12.9z M100.2,11.5c0.6-0.9,2.2,0.9,2.5,1.4c-0.9,0.3-1.9,0.3-2.9,0.5
			C99.8,12.7,99.9,12.1,100.2,11.5L100.2,11.5z M101.7,20.4c-0.8,2.3-1.6,4.9-3.5,6.6c-1.2-1.4,0.1-4,0.8-5.4
			c0.3-0.6,0.9-2.4,1.5-2.5S101.9,19.8,101.7,20.4z M102.3,18.1c-1.5-0.9-0.1-1.9,0.6-3.1C102.9,16.1,102.7,17.1,102.3,18.1z"/>
	</g>
	<g id="content">
		<polygon class="st0" points="2.3,6 8.9,2.1 9.1,3.1 3.8,6.9 		"/>
		<path class="st1" d="M12,1.9c0,0.1-3,1.2-3,1.2l-0.1-1L12,1.9z"/>
		<path class="st2" d="M12.9,0.4c-0.1,0.1,3.1,0.7,3.1,0.7l-1.9,2.1L12,2L8.9,2.1L12.9,0.4z"/>
		<polygon class="st3" points="10.6,7.5 13.8,4.9 12,2 		"/>
		<polygon class="st4" points="14.2,3.2 13.8,4.9 12,2 		"/>
		<polygon class="st5" points="7.6,8.3 10.6,7.5 12,2 		"/>
		<polygon class="st6" points="3.8,6.9 9.1,3.1 12,2 7.6,8.3 		"/>
		<polygon class="st7" points="5.9,10.3 7.6,8.3 3.8,6.9 		"/>
		<polygon class="st8" points="16.1,1.1 16.9,2.3 14.2,3.2 		"/>
		<polygon class="st9" points="13.6,7.1 16.9,2.3 14.3,3.1 13.8,4.9 		"/>
		<polygon class="st10" points="13.6,7.6 13.6,7.1 13.8,4.9 10.6,7.5 		"/>
		<polygon class="st11" points="7.7,13.5 7.6,8.3 5.9,10.3 		"/>
		<polygon class="st12" points="7.7,13.5 10.6,7.5 7.6,8.3 		"/>
		<polygon class="st13" points="11.5,16.9 10.6,7.5 7.7,13.5 		"/>
		<polygon class="st14" points="15.6,11.7 13.6,7.6 10.6,7.5 11.5,16.9 		"/>
		<polygon class="st15" points="20.2,0 16.1,1 16.9,2.3 20.2,5.2 		"/>
		<path class="st16" d="M13.6,7.6c0,0,0-0.3,0-0.5c0-0.1,3.3-4.8,3.3-4.8l3.3,3l-5.9,1.3L13.6,7.6z"/>
		<polygon class="st17" points="16.8,7.8 20.2,5.2 14.3,6.5 		"/>
		<polygon class="st18" points="13.6,7.6 15,8 14.3,6.5 		"/>
		<polygon class="st19" points="16.8,7.8 14.3,6.5 15,8 		"/>
		<polygon class="st20" points="13.6,7.6 15,8 15.6,11.7 13.6,7.6 		"/>
		<polygon class="st5" points="16.8,7.8 15,8 16,9.1 		"/>
		<polygon class="st21" points="16,12.9 15.6,11.7 15,8 16,9.1 16.6,11.2 		"/>
		<polygon class="st22" points="16.8,7.8 16.6,11.2 16,9.1 		"/>
		<polygon class="st23" points="20.2,5.2 20.2,8.1 16.8,7.8 		"/>
		<polygon class="st24" points="17.1,11.7 16.8,7.8 20.2,8.1 		"/>
		<polygon class="st25" points="16.6,11.2 17.1,11.7 16.8,7.8 		"/>
		<polygon class="st26" points="20.2,12.2 20.2,8.1 17.1,11.7 17.2,11.9 		"/>
		<polygon class="st27" points="15,15.9 15.3,15.7 17.2,11.9 17.1,11.7 16.6,11.2 16,12.9 		"/>
		<polygon class="st28" points="20.2,18.2 20.2,18.1 20.2,12.2 17.2,11.9 		"/>
		<polygon class="st29" points="15.3,15.7 17.5,17.3 20.2,18.1 17.2,11.9 		"/>
		<path d="M15,15.9c0,0,1.9,1.6,1.9,1.6s0.6-0.3,0.6-0.3l-2.2-1.6L15,15.9z"/>
		<polygon class="st30" points="20.2,22.7 20.2,18.1 17.5,17.3 		"/>
		<polygon class="st31" points="18.2,24.9 20.2,22.7 17.5,17.3 		"/>
		<path class="st4" d="M20.2,30.3v-7.6c0,0-2,2.2-2,2.3c0,0,0.3,4.4,0.3,4.4L20.2,30.3z"/>
		<polygon class="st32" points="20.2,33.6 20.2,30.3 18.5,29.3 18.5,30.1 19.2,30.3 18.7,33.2 		"/>
		<polygon class="st31" points="14.9,21.6 16.9,17.6 15.4,16.4 		"/>
		<polygon points="15.5,22.1 14.9,21.6 16.9,17.6 		"/>
		<polygon class="st33" points="14,20.8 14.9,21.6 15.4,16.4 		"/>
		<polygon class="st34" points="14.2,25.7 14.9,21.6 15.5,22.1 14.7,24.6 		"/>
		<polygon class="st35" points="14,20.8 14.9,21.6 14.2,25.7 13.4,25.3 		"/>
		<polygon class="st36" points="14.1,28.9 14.7,24.6 14.2,25.7 		"/>
		<polygon class="st37" points="13.4,25.3 14.2,25.7 14.1,28.9 		"/>
		<polygon class="st38" points="38.1,6 31.5,2.1 31.3,3.1 36.6,6.9 		"/>
		<path class="st39" d="M28.4,1.9c0,0.1,3,1.2,3,1.2l0.1-1L28.4,1.9z"/>
		<path class="st40" d="M27.5,0.4c0.1,0.1-3.1,0.7-3.1,0.7l1.9,2.1L28.4,2l3.1,0.1L27.5,0.4z"/>
		<polygon class="st41" points="29.8,7.5 26.6,4.9 28.4,2 		"/>
		<polygon class="st42" points="26.2,3.2 26.6,4.9 28.4,2 		"/>
		<polygon class="st43" points="32.8,8.3 29.8,7.5 28.4,2 		"/>
		<polygon class="st44" points="36.6,6.9 31.3,3.1 28.4,2 32.8,8.3 		"/>
		<polygon class="st45" points="34.5,10.3 32.8,8.3 36.6,6.9 		"/>
		<polygon class="st46" points="24.4,1.1 23.5,2.2 26.2,3.2 		"/>
		<polygon class="st47" points="26.8,7.1 23.5,2.3 26.1,3.1 26.6,4.9 		"/>
		<polygon class="st48" points="26.8,7.6 26.8,7.1 26.6,4.9 29.8,7.5 		"/>
		<polygon class="st49" points="32.7,13.5 32.8,8.3 34.5,10.3 		"/>
		<polygon class="st50" points="32.7,13.5 29.8,7.5 32.8,8.3 		"/>
		<polygon class="st51" points="28.9,16.9 29.8,7.5 32.7,13.5 		"/>
		<polygon class="st52" points="24.8,11.7 26.8,7.6 29.8,7.5 28.9,16.9 		"/>
		<polygon class="st53" points="20.2,0 24.3,1 23.5,2.3 20.2,5.2 		"/>
		<path class="st54" d="M26.8,7.6c0,0,0-0.3,0-0.5c0-0.1-3.3-4.8-3.3-4.8l-3.3,3l5.9,1.3L26.8,7.6z"/>
		<polygon class="st55" points="23.6,7.8 20.2,5.2 26.1,6.5 		"/>
		<polygon class="st13" points="26.8,7.6 25.4,8 26.1,6.5 		"/>
		<polygon class="st56" points="23.6,7.8 26.1,6.5 25.4,8 		"/>
		<polygon class="st57" points="26.8,7.6 25.4,8 24.8,11.7 26.8,7.6 		"/>
		<polygon class="st58" points="23.6,7.8 25.4,8 24.4,9.1 		"/>
		<polygon class="st13" points="24.4,12.9 24.8,11.7 25.4,8 24.4,9.1 23.8,11.2 		"/>
		<polygon class="st59" points="23.6,7.8 23.8,11.2 24.4,9.1 		"/>
		<polygon class="st60" points="20.2,5.2 20.2,8.1 23.6,7.8 		"/>
		<polygon class="st61" points="23.3,11.7 23.6,7.8 20.2,8.1 		"/>
		<polygon class="st62" points="23.8,11.2 23.3,11.7 23.6,7.8 		"/>
		<polygon class="st63" points="20.2,12.2 20.2,8.1 23.3,11.7 23.2,11.9 		"/>
		<polygon class="st64" points="25.4,15.9 25.1,15.7 23.2,11.9 23.3,11.7 23.8,11.2 24.4,12.9 		"/>
		<polygon class="st65" points="20.2,18.2 20.2,18.1 20.2,12.2 23.2,11.9 		"/>
		<polygon class="st66" points="25.1,15.7 22.9,17.3 20.2,18.1 23.2,11.9 		"/>
		<path class="st67" d="M25.4,15.9c0,0-1.9,1.6-1.9,1.6c0,0-0.6-0.3-0.6-0.3l2.2-1.6L25.4,15.9z"/>
		<polygon class="st68" points="20.2,22.7 20.2,18.1 22.9,17.3 		"/>
		<polygon class="st69" points="22.2,24.9 20.2,22.7 22.9,17.3 		"/>
		<path class="st12" d="M20.2,30.3v-7.6c0,0,2,2.2,2,2.3c0,0-0.3,4.4-0.3,4.4L20.2,30.3z"/>
		<polygon class="st59" points="20.2,33.6 20.2,30.3 21.9,29.3 21.7,32.6 		"/>
		<polygon class="st70" points="25.5,21.6 23.5,17.6 25,16.4 		"/>
		<polygon class="st71" points="24.9,22.1 25.5,21.6 23.5,17.6 		"/>
		<polygon class="st72" points="26.4,20.8 25.5,21.6 25,16.4 		"/>
		<polygon class="st73" points="26.2,25.7 25.5,21.6 24.9,22.1 25.7,24.6 		"/>
		<polygon class="st74" points="26.4,20.8 25.5,21.6 26.2,25.7 27,25.3 		"/>
		<polygon class="st25" points="26.3,28.9 25.7,24.6 26.2,25.7 		"/>
		<polygon class="st50" points="27,25.3 26.2,25.7 26.3,28.9 		"/>
	</g>
</g>
</svg>
