<?xml version="1.0" encoding="utf-8"?>
<!-- Generator: Adobe Illustrator 15.0.0, SVG Export Plug-In . SVG Version: 6.00 Build 0)  -->
<!DOCTYPE svg PUBLIC "-//W3C//DTD SVG 1.1//EN" "http://www.w3.org/Graphics/SVG/1.1/DTD/svg11.dtd">
<svg version="1.1" id="Layer_1" xmlns="http://www.w3.org/2000/svg" xmlns:xlink="http://www.w3.org/1999/xlink" x="0px" y="0px"
	 width="16.75px" height="16.75px" viewBox="0 0 16.75 16.75" enable-background="new 0 0 16.75 16.75" xml:space="preserve">
<path id="XMLID_22_" fill="#FFFFFF" d="M5.03,13.008c6.04,0,9.343-5.006,9.343-9.343c0-0.141,0-0.281-0.01-0.427
	c0.643-0.467,1.195-1.04,1.637-1.702c-0.598,0.266-1.235,0.442-1.888,0.517c0.688-0.412,1.2-1.054,1.446-1.817
	c-0.643,0.382-1.351,0.653-2.084,0.798c-1.245-1.32-3.323-1.386-4.644-0.141C7.978,1.696,7.616,2.891,7.882,4.031
	C5.241,3.9,2.781,2.65,1.115,0.602C0.241,2.103,0.688,4.021,2.128,4.985C1.606,4.97,1.094,4.829,0.638,4.573c0,0.015,0,0.025,0,0.04
	c0,1.562,1.104,2.907,2.636,3.218c-0.482,0.13-0.989,0.15-1.481,0.055c0.432,1.335,1.662,2.254,3.067,2.279
	c-1.165,0.914-2.601,1.411-4.077,1.411c-0.261,0-0.522-0.016-0.783-0.046C1.496,12.496,3.243,13.008,5.03,13.008"/>
</svg>
